<svg width="380" height="380" viewBox="0 0 380 380" fill="none" xmlns="http://www.w3.org/2000/svg">
<rect width="380" height="380" rx="14" fill="#F9ECD1"/>
<path d="M67.544 51.032V49.848H75.096V51.032H72.056V61H70.6V51.032H67.544ZM76.8883 61V49.16H78.3443V53.496C78.9203 52.568 80.0083 52.072 81.2403 52.072C83.1923 52.072 84.7443 53.32 84.7443 55.832V61H83.3043V56.04C83.3043 54.248 82.3283 53.336 80.8563 53.336C79.3683 53.336 78.3443 54.264 78.3443 56.152V61H76.8883ZM90.8506 53.32C89.4266 53.32 88.2426 54.264 88.0826 55.976H93.6186C93.6346 54.264 92.3546 53.32 90.8506 53.32ZM94.9466 58.296C94.4986 59.896 93.0906 61.144 90.9146 61.144C88.4186 61.144 86.5786 59.384 86.5786 56.6C86.5786 53.832 88.3546 52.088 90.9146 52.088C93.4586 52.088 95.1226 53.88 95.1226 56.28C95.1226 56.6 95.1066 56.856 95.0746 57.16H88.0666C88.1786 58.936 89.4266 59.912 90.9146 59.912C92.2266 59.912 93.0586 59.24 93.3786 58.296H94.9466ZM98.5005 56.232V61H97.0445V52.232H98.5005V53.656C98.9965 52.68 99.9405 52.072 101.333 52.072V53.576H100.949C99.5565 53.576 98.5005 54.2 98.5005 56.232ZM106.741 53.32C105.317 53.32 104.133 54.264 103.973 55.976H109.509C109.525 54.264 108.245 53.32 106.741 53.32ZM110.837 58.296C110.389 59.896 108.981 61.144 106.805 61.144C104.309 61.144 102.469 59.384 102.469 56.6C102.469 53.832 104.245 52.088 106.805 52.088C109.349 52.088 111.013 53.88 111.013 56.28C111.013 56.6 110.997 56.856 110.965 57.16H103.957C104.069 58.936 105.317 59.912 106.805 59.912C108.117 59.912 108.949 59.24 109.269 58.296H110.837ZM116.657 56.584C116.657 53.848 118.465 52.088 120.817 52.088C122.449 52.088 123.569 52.92 124.081 53.832V52.232H125.553V61H124.081V59.368C123.553 60.312 122.417 61.144 120.801 61.144C118.465 61.144 116.657 59.304 116.657 56.584ZM124.081 56.6C124.081 54.568 122.705 53.352 121.105 53.352C119.505 53.352 118.145 54.52 118.145 56.584C118.145 58.648 119.505 59.864 121.105 59.864C122.705 59.864 124.081 58.664 124.081 56.6ZM129.469 56.232V61H128.013V52.232H129.469V53.656C129.965 52.68 130.909 52.072 132.301 52.072V53.576H131.917C130.525 53.576 129.469 54.2 129.469 56.232ZM137.71 53.32C136.286 53.32 135.102 54.264 134.942 55.976H140.478C140.494 54.264 139.214 53.32 137.71 53.32ZM141.806 58.296C141.358 59.896 139.95 61.144 137.774 61.144C135.278 61.144 133.438 59.384 133.438 56.6C133.438 53.832 135.214 52.088 137.774 52.088C140.318 52.088 141.982 53.88 141.982 56.28C141.982 56.6 141.966 56.856 141.934 57.16H134.926C135.038 58.936 136.286 59.912 137.774 59.912C139.086 59.912 139.918 59.24 140.238 58.296H141.806ZM154.586 61V56.04C154.586 54.248 153.61 53.336 152.138 53.336C150.65 53.336 149.626 54.264 149.626 56.152V61H148.17V52.232H149.626V53.48C150.202 52.568 151.258 52.072 152.442 52.072C154.474 52.072 156.026 53.32 156.026 55.832V61H154.586ZM166.724 56.6C166.724 59.384 164.724 61.144 162.228 61.144C159.748 61.144 157.86 59.384 157.86 56.6C157.86 53.832 159.812 52.088 162.292 52.088C164.788 52.088 166.724 53.832 166.724 56.6ZM159.348 56.6C159.348 58.824 160.708 59.864 162.228 59.864C163.748 59.864 165.236 58.824 165.236 56.6C165.236 54.392 163.78 53.352 162.276 53.352C160.74 53.352 159.348 54.392 159.348 56.6ZM172.36 56.584C172.36 53.848 174.168 52.088 176.52 52.088C178.152 52.088 179.272 52.92 179.784 53.832V52.232H181.256V61H179.784V59.368C179.256 60.312 178.12 61.144 176.504 61.144C174.168 61.144 172.36 59.304 172.36 56.584ZM179.784 56.6C179.784 54.568 178.408 53.352 176.808 53.352C175.208 53.352 173.848 54.52 173.848 56.584C173.848 58.648 175.208 59.864 176.808 59.864C178.408 59.864 179.784 58.664 179.784 56.6ZM190.132 61V56.04C190.132 54.248 189.156 53.336 187.684 53.336C186.196 53.336 185.172 54.264 185.172 56.152V61H183.716V52.232H185.172V53.48C185.748 52.568 186.804 52.072 187.988 52.072C190.02 52.072 191.572 53.32 191.572 55.832V61H190.132ZM200.367 61V56.04C200.367 54.248 199.391 53.336 197.919 53.336C196.431 53.336 195.407 54.264 195.407 56.152V61H193.951V52.232H195.407V53.48C195.983 52.568 197.039 52.072 198.223 52.072C200.255 52.072 201.807 53.32 201.807 55.832V61H200.367ZM212.505 56.6C212.505 59.384 210.505 61.144 208.009 61.144C205.529 61.144 203.641 59.384 203.641 56.6C203.641 53.832 205.593 52.088 208.073 52.088C210.569 52.088 212.505 53.832 212.505 56.6ZM205.129 56.6C205.129 58.824 206.489 59.864 208.009 59.864C209.529 59.864 211.017 58.824 211.017 56.6C211.017 54.392 209.561 53.352 208.057 53.352C206.521 53.352 205.129 54.392 205.129 56.6ZM222.196 52.232V61H220.74V59.704C220.18 60.616 219.108 61.128 217.94 61.128C215.924 61.128 214.34 59.88 214.34 57.368V52.232H215.78V57.176C215.78 58.952 216.756 59.864 218.228 59.864C219.732 59.864 220.74 58.936 220.74 57.048V52.232H222.196ZM231.07 61V56.04C231.07 54.248 230.094 53.336 228.622 53.336C227.134 53.336 226.11 54.264 226.11 56.152V61H224.654V52.232H226.11V53.48C226.686 52.568 227.742 52.072 228.926 52.072C230.958 52.072 232.51 53.32 232.51 55.832V61H231.07ZM234.344 56.6C234.344 53.848 236.12 52.088 238.616 52.088C240.792 52.088 242.216 53.208 242.664 55.048H241.096C240.792 53.992 239.912 53.32 238.616 53.32C237.016 53.32 235.832 54.456 235.832 56.6C235.832 58.776 237.016 59.912 238.616 59.912C239.912 59.912 240.776 59.288 241.096 58.184H242.664C242.216 59.928 240.792 61.144 238.616 61.144C236.12 61.144 234.344 59.384 234.344 56.6ZM248.335 53.32C246.911 53.32 245.727 54.264 245.567 55.976H251.103C251.119 54.264 249.839 53.32 248.335 53.32ZM252.431 58.296C251.983 59.896 250.575 61.144 248.399 61.144C245.903 61.144 244.063 59.384 244.063 56.6C244.063 53.832 245.839 52.088 248.399 52.088C250.943 52.088 252.607 53.88 252.607 56.28C252.607 56.6 252.591 56.856 252.559 57.16H245.551C245.663 58.936 246.911 59.912 248.399 59.912C249.711 59.912 250.543 59.24 250.863 58.296H252.431ZM267.185 61V56.04C267.185 54.248 266.225 53.336 264.785 53.336C263.313 53.336 262.305 54.28 262.305 56.168V61H260.865V56.04C260.865 54.248 259.905 53.336 258.465 53.336C256.993 53.336 255.985 54.28 255.985 56.168V61H254.529V52.232H255.985V53.496C256.561 52.568 257.601 52.072 258.753 52.072C260.193 52.072 261.393 52.712 261.969 54.024C262.481 52.76 263.729 52.072 265.073 52.072C267.073 52.072 268.625 53.32 268.625 55.832V61H267.185ZM274.741 53.32C273.317 53.32 272.133 54.264 271.973 55.976H277.509C277.525 54.264 276.245 53.32 274.741 53.32ZM278.837 58.296C278.389 59.896 276.981 61.144 274.805 61.144C272.309 61.144 270.469 59.384 270.469 56.6C270.469 53.832 272.245 52.088 274.805 52.088C277.349 52.088 279.013 53.88 279.013 56.28C279.013 56.6 278.997 56.856 278.965 57.16H271.957C272.069 58.936 273.317 59.912 274.805 59.912C276.117 59.912 276.949 59.24 277.269 58.296H278.837ZM287.351 61V56.04C287.351 54.248 286.375 53.336 284.903 53.336C283.415 53.336 282.391 54.264 282.391 56.152V61H280.935V52.232H282.391V53.48C282.967 52.568 284.023 52.072 285.207 52.072C287.239 52.072 288.791 53.32 288.791 55.832V61H287.351ZM291.49 58.6V53.432H290.354V52.232H291.49V50.024H292.946V52.232H295.234V53.432H292.946V58.6C292.946 59.464 293.266 59.768 294.161 59.768H295.234V61H293.922C292.37 61 291.49 60.36 291.49 58.6ZM303.302 58.616C303.302 60.056 302.038 61.144 300.102 61.144C298.054 61.144 296.614 60.024 296.518 58.424H298.022C298.102 59.272 298.854 59.912 300.086 59.912C301.238 59.912 301.878 59.336 301.878 58.616C301.878 56.664 296.694 57.8 296.694 54.536C296.694 53.192 297.958 52.088 299.91 52.088C301.846 52.088 303.126 53.128 303.222 54.84H301.766C301.702 53.96 301.03 53.32 299.862 53.32C298.79 53.32 298.15 53.832 298.15 54.536C298.15 56.616 303.238 55.48 303.302 58.616ZM310.119 57.848L309.943 49.848H311.511L311.335 57.848H310.119ZM311.751 60.104C311.751 60.664 311.319 61.096 310.791 61.096C310.231 61.096 309.799 60.664 309.799 60.104C309.799 59.544 310.231 59.112 310.791 59.112C311.319 59.112 311.751 59.544 311.751 60.104Z" fill="#3B3B3B"/>
<path d="M190.5 370C269.201 370 333 306.201 333 227.5C333 148.799 269.201 85 190.5 85C111.799 85 48 148.799 48 227.5C48 306.201 111.799 370 190.5 370Z" fill="#F9ECD1"/>
<path d="M54.9854 348.352H260.754V192.388L54.9854 192.388L54.9854 348.352Z" fill="#E6D0BE"/>
<path d="M254.297 329.389L254.297 198.844L61.4399 198.844L61.4399 329.389H254.297Z" fill="#F2E6DC"/>
<path d="M157.521 334.749C159.374 334.565 161.026 335.919 161.209 337.773C161.393 339.627 160.039 341.278 158.185 341.462C156.331 341.645 154.68 340.291 154.496 338.438C154.313 336.584 155.667 334.932 157.521 334.749Z" fill="#F99D20" stroke="white"/>
<path d="M54.9883 352.578C54.9883 361.505 62.2249 368.742 71.1515 368.742H286.835C295.762 368.742 302.998 361.505 302.998 352.578H54.9883Z" fill="#E6D0BE"/>
<path d="M109.146 367.4C101.895 367.4 95.9961 361.501 95.9961 354.25C95.9961 354.065 96.1466 353.914 96.3324 353.914C96.5182 353.914 96.6687 354.065 96.6687 354.25C96.6687 361.13 102.266 366.728 109.146 366.728C109.332 366.728 109.482 366.878 109.482 367.064C109.482 367.25 109.332 367.4 109.146 367.4Z" fill="#F2E6DC"/>
<path d="M184.574 356.398C184.574 360.192 187.649 363.267 191.442 363.267H215.622C219.415 363.267 222.49 360.192 222.49 356.398H184.574Z" fill="#F2E6DC"/>
<path d="M193.5 227.5H67.5V329.5H193.5V227.5Z" fill="#F99D20"/>
<path d="M159.27 329.386C159.254 316.585 158.157 304.56 155.299 295.075C153.05 287.609 151.341 280.569 148.984 274.375C134.951 271.802 120.917 269.229 106.883 266.656C100.357 275.795 93.8967 282.834 86.1836 306.301C84.4536 311.565 82.6725 319.62 80.9336 329.386H159.27Z" fill="#363E44"/>
<path d="M134.053 196.279C137.553 195.343 143.506 195.174 145.812 198.387C149.091 202.955 142.92 208.127 146.366 213.251C148.94 217.077 153.29 217.063 155.795 220.794C158.711 225.138 155.857 234.336 150.36 237.655C141.522 242.991 122.423 235.207 119.521 221.238C117.332 210.698 124.802 198.753 134.053 196.279Z" fill="#363E44"/>
<path d="M174.028 247.729C198.139 277.947 188.773 279.031 183.553 282.889C179.324 286.016 165.457 274.917 155.518 262.218C145.578 249.518 141.664 235.98 146.776 231.98C151.887 227.979 163.97 235.124 174.028 247.729Z" fill="#E2A18D"/>
<path d="M204.236 225.286C204.09 225.631 203.989 225.844 203.946 225.854C203.997 225.71 204.065 225.499 204.146 225.243C202.863 224.659 201.549 224.156 200.218 223.747C196.393 222.569 192.613 222.772 188.884 223.747C187.604 226.957 186.576 229.774 186.125 231.036C185.374 233.142 177.821 253.755 174.473 262.863C176.723 269.353 179.61 276.926 181.86 283.417C188.849 283.343 192.527 278.577 193.808 275.707C197.11 268.31 199.536 261.328 203.47 245.302C205.145 238.478 206.919 232.558 207.438 229.212C207.476 228.908 207.645 228.171 207.858 227.222C206.692 226.504 205.479 225.857 204.236 225.286Z" fill="#E2A18D"/>
<path d="M88.3193 236.867C80.4667 243.19 56.6869 260.052 63.8758 269.957C69.8222 278.15 92.2561 260.708 100.461 254.934C96.4138 248.912 92.3665 242.89 88.3193 236.867Z" fill="#E2A18D"/>
<path d="M81.3086 240.23C84.1924 237.564 105.815 218.228 135.221 223.039C152.179 225.813 163.366 235.25 167.966 239.645C164.458 244.011 160.949 248.377 157.441 252.743C159.234 261.865 161.027 270.987 162.82 280.109C149.489 279.992 106.452 278.705 92.8861 278.238C95.3031 270.519 97.7199 266.39 100.137 258.672C98.2657 260.231 96.3944 261.79 94.5233 263.35C90.1965 256.135 85.1677 247.013 81.3086 240.23Z" fill="white"/>
<path d="M133.83 276.439L107.328 249.938L73.5127 283.753L100.014 310.255L133.83 276.439Z" fill="#0FA8D9"/>
<path d="M119.432 274.093C119.346 274.093 119.26 274.06 119.194 273.994L108.868 263.668C108.737 263.537 108.737 263.324 108.868 263.192C108.999 263.061 109.212 263.061 109.344 263.192L119.67 273.519C119.801 273.65 119.801 273.863 119.67 273.994C119.604 274.06 119.518 274.093 119.432 274.093Z" fill="#363E44"/>
<path d="M114.678 278.843C114.592 278.843 114.506 278.81 114.441 278.744L104.114 268.418C103.983 268.287 103.983 268.074 104.114 267.942C104.245 267.811 104.458 267.811 104.59 267.942L114.916 278.268C115.047 278.4 115.047 278.613 114.916 278.744C114.85 278.81 114.764 278.843 114.678 278.843Z" fill="#363E44"/>
<path d="M115.871 275.278C115.785 275.278 115.699 275.245 115.634 275.179L107.684 267.23C107.553 267.099 107.553 266.886 107.684 266.755C107.816 266.623 108.029 266.623 108.16 266.755L116.109 274.704C116.24 274.835 116.24 275.048 116.109 275.179C116.043 275.245 115.957 275.278 115.871 275.278Z" fill="#363E44"/>
<path d="M83.611 262.328C91.1917 268.386 109.75 281.767 111.51 283.146C114.799 285.722 121.962 291.018 120.696 293.591C120.276 294.447 119.285 294.987 118.147 295.053C118.495 296.226 118.124 297.48 117.216 298.22C116.023 299.192 114.551 298.747 114.444 298.712C114.831 299.577 114.766 300.56 114.242 301.245C113.518 302.19 112.009 302.454 110.788 301.691C110.764 301.958 110.644 302.908 109.862 303.598C108.996 304.363 107.666 304.5 106.498 303.94C103.574 301.653 98.4329 298.834 92.4896 295.086C78.5308 286.285 72.6756 281.775 66.7025 276.302C64.3856 274.179 61.0281 269.182 63.1688 262.529C70.0377 262.447 76.7421 262.41 83.611 262.328Z" fill="#E2A18D"/>
<path d="M86.484 264.938C86.4117 264.938 86.3388 264.915 86.2775 264.867C84.6066 263.565 83.2265 262.487 82.4714 261.889C82.3257 261.774 82.3011 261.562 82.4163 261.417C82.5319 261.271 82.7432 261.246 82.8887 261.362C83.6432 261.959 85.0216 263.036 86.6909 264.336C86.8373 264.45 86.8635 264.662 86.7494 264.808C86.6832 264.893 86.5839 264.938 86.484 264.938Z" fill="#363E44"/>
<path d="M115.242 291.324C115.163 291.324 115.082 291.296 115.018 291.238C114.88 291.114 114.868 290.902 114.992 290.763L116.218 289.393C116.342 289.255 116.555 289.243 116.693 289.367C116.832 289.491 116.843 289.704 116.719 289.842L115.493 291.212C115.427 291.286 115.335 291.324 115.242 291.324Z" fill="#363E44"/>
<path d="M112.137 294.808C112.057 294.808 111.977 294.78 111.913 294.722C111.774 294.599 111.763 294.386 111.886 294.248L113.113 292.878C113.237 292.739 113.449 292.727 113.588 292.851C113.726 292.975 113.738 293.188 113.614 293.326L112.388 294.696C112.321 294.77 112.229 294.808 112.137 294.808Z" fill="#363E44"/>
<path d="M109.008 298.386C108.928 298.386 108.848 298.358 108.784 298.301C108.645 298.177 108.634 297.964 108.758 297.826L109.984 296.456C110.108 296.317 110.32 296.306 110.459 296.43C110.597 296.553 110.609 296.766 110.485 296.904L109.259 298.274C109.192 298.349 109.1 298.386 109.008 298.386Z" fill="#363E44"/>
<path d="M106.113 301.574C106.034 301.574 105.954 301.546 105.889 301.488C105.751 301.364 105.739 301.152 105.863 301.013L107.089 299.643C107.213 299.505 107.426 299.493 107.564 299.617C107.703 299.741 107.714 299.954 107.59 300.092L106.364 301.462C106.298 301.536 106.206 301.574 106.113 301.574Z" fill="#363E44"/>
<path d="M206.484 230.882C204.812 233.131 201.633 233.598 199.385 231.926L181.188 218.393L187.243 210.25L205.44 223.783C207.689 225.455 208.156 228.633 206.484 230.882Z" fill="#949AA8"/>
<path d="M231.719 192.104C235.393 188.431 235.393 182.475 231.719 178.802C228.046 175.129 222.09 175.129 218.417 178.802C214.743 182.475 214.743 188.431 218.417 192.104C222.09 195.778 228.046 195.778 231.719 192.104Z" fill="#F99D20" fill-opacity="0.5"/>
<path d="M235.348 203.71L190.8 215.544L182.286 201.244L213.924 167.723L235.348 203.71Z" fill="white" stroke="#F99D20"/>
<path d="M181.679 201.208L172.066 206.93L180.942 221.84L190.554 216.118L181.679 201.208Z" fill="#F99D20"/>
<path d="M186.189 212.329L179.352 216.398L180.915 219.025L187.752 214.955L186.189 212.329Z" fill="white"/>
<path d="M183.775 208.274L176.938 212.344L178.501 214.97L185.338 210.9L183.775 208.274Z" fill="white"/>
<path d="M181.361 204.219L174.523 208.289L176.087 210.916L182.924 206.846L181.361 204.219Z" fill="white"/>
<path d="M230.516 173.694C230.485 173.694 230.454 173.689 230.423 173.68C230.244 173.629 230.142 173.443 230.193 173.264L232.142 166.51C232.171 166.41 232.245 166.329 232.341 166.291C232.438 166.252 232.547 166.261 232.636 166.313L237.323 169.072L241.595 161.814C241.689 161.654 241.896 161.601 242.056 161.695C242.216 161.789 242.269 161.995 242.175 162.155L237.732 169.703C237.637 169.863 237.431 169.917 237.271 169.822L232.669 167.113L230.839 173.45C230.797 173.598 230.662 173.694 230.516 173.694Z" fill="white"/>
<path d="M243.504 187.06C243.444 187.06 243.384 187.044 243.331 187.012C243.246 186.961 243.188 186.875 243.172 186.778L242.539 182.918L237.387 183.896C237.204 183.931 237.029 183.81 236.994 183.628C236.96 183.445 237.079 183.269 237.262 183.235L242.752 182.193C242.841 182.177 242.933 182.196 243.007 182.248C243.082 182.3 243.132 182.38 243.147 182.469L243.772 186.279L250.81 183.914C250.987 183.855 251.177 183.95 251.236 184.126C251.295 184.302 251.2 184.492 251.024 184.552L243.611 187.043C243.577 187.054 243.54 187.06 243.504 187.06Z" fill="white"/>
<path d="M245.018 177.093C245.009 177.093 244.999 177.092 244.989 177.091C244.894 177.083 244.807 177.035 244.75 176.959L242.252 173.656L239.107 175.988C238.958 176.099 238.747 176.068 238.637 175.919C238.526 175.769 238.557 175.559 238.706 175.448L242.119 172.917C242.268 172.807 242.476 172.837 242.588 172.984L245.062 176.256L249.958 171.707C250.094 171.581 250.307 171.588 250.434 171.725C250.56 171.861 250.552 172.074 250.416 172.2L245.247 177.003C245.185 177.061 245.103 177.093 245.018 177.093Z" fill="white"/>
<path d="M195.645 221.661C194.819 221.081 194.619 219.941 195.199 219.115L197.318 216.098C197.897 215.272 199.037 215.072 199.863 215.652C200.689 216.232 200.889 217.372 200.309 218.198L198.19 221.215C197.61 222.041 196.471 222.24 195.645 221.661Z" fill="#E2A18D"/>
<path d="M197.578 224.719C198.541 225.395 199.869 225.163 200.545 224.2L203.92 219.393C204.596 218.43 204.363 217.102 203.401 216.426C202.438 215.75 201.11 215.983 200.434 216.945L197.059 221.752C196.383 222.715 196.615 224.043 197.578 224.719Z" fill="#E2A18D"/>
<path d="M200.91 227.055C201.872 227.731 203.201 227.499 203.877 226.536L207.252 221.729C207.928 220.766 207.696 219.438 206.733 218.762C205.77 218.086 204.442 218.318 203.766 219.281L200.391 224.088C199.715 225.051 199.947 226.379 200.91 227.055Z" fill="#E2A18D"/>
<path d="M204.03 229.248C204.875 229.841 206.041 229.637 206.634 228.792L209.391 224.866C209.984 224.021 209.78 222.855 208.935 222.262C208.09 221.668 206.924 221.872 206.331 222.717L203.574 226.644C202.981 227.489 203.185 228.655 204.03 229.248Z" fill="#E2A18D"/>
<path d="M190.368 226.401C189.362 226.317 188.614 225.434 188.698 224.429L189.002 220.755C189.086 219.749 189.969 219.001 190.975 219.084C191.98 219.168 192.728 220.051 192.645 221.057L193.637 227.566C193.553 228.572 191.374 226.484 190.368 226.401Z" fill="#E2A18D"/>
<path d="M139.869 226.504C139.869 228.812 135.307 230.682 129.679 230.682C124.051 230.682 119.488 228.812 119.488 226.504C119.488 224.197 123.968 221.203 129.596 221.203C132.665 221.203 135.808 222.335 137.329 223.347C138.815 224.335 139.869 225.455 139.869 226.504Z" fill="#E2A18D"/>
<path d="M134.728 203.766H123.852V226.014H134.728V203.766Z" fill="#E2A18D"/>
<path d="M131.823 199.926C132.148 199.868 135.269 199.366 137.328 201.365C138.861 202.853 139.19 204.891 139.226 208.392C139.268 212.516 138.716 214.986 137.599 215.888C135.834 217.313 130.02 214.889 127.638 211.472C125.918 209.006 125.831 205.663 127.235 202.98C128.635 200.305 131.616 199.962 131.823 199.926Z" fill="#E2A18D"/>
<path d="M139.688 204.824C139.686 204.851 139.705 204.872 139.703 204.9C139.703 204.901 139.703 204.902 139.703 204.902C139.803 205.275 139.91 205.668 140.077 206.015C140.15 206.169 140.263 206.251 140.349 206.388C140.412 206.489 140.472 206.586 140.538 206.682C141.375 205.715 141.632 204.534 141.632 204.534C141.632 204.534 140.692 204.481 139.688 204.824Z" fill="white"/>
<mask id="mask0_4980_19190" style="mask-type:luminance" maskUnits="userSpaceOnUse" x="136" y="204" width="6" height="5">
<path d="M141.632 204.535C141.632 204.535 141.259 206.251 139.949 207.239C138.638 208.227 136.887 208.113 136.887 208.113C136.887 208.113 137.259 206.397 138.57 205.409C139.88 204.421 141.632 204.535 141.632 204.535Z" fill="white"/>
</mask>
<g mask="url(#mask0_4980_19190)">
<path d="M140.536 206.37C140.628 207.551 139.745 208.584 138.563 208.676C137.382 208.769 136.349 207.886 136.257 206.704C136.164 205.522 137.047 204.49 138.229 204.397C139.411 204.305 140.444 205.188 140.536 206.37Z" fill="#363E44"/>
</g>
<path d="M132.695 207.96C132.722 208.415 132.827 208.754 133.103 209.093C134.178 208.943 134.994 208.452 134.994 208.452C134.994 208.452 134.073 207.363 132.727 206.938C132.632 207.259 132.675 207.637 132.695 207.96Z" fill="white"/>
<mask id="mask1_4980_19190" style="mask-type:luminance" maskUnits="userSpaceOnUse" x="129" y="206" width="6" height="4">
<path d="M129.133 207.449C129.133 207.449 130.636 206.543 132.254 206.818C133.872 207.093 134.991 208.445 134.991 208.445C134.991 208.445 133.488 209.351 131.87 209.076C130.252 208.801 129.133 207.449 129.133 207.449Z" fill="white"/>
</mask>
<g mask="url(#mask1_4980_19190)">
<path d="M129.494 206.877C130.29 205.998 131.647 205.932 132.525 206.728C133.403 207.524 133.47 208.881 132.673 209.759C131.877 210.637 130.52 210.704 129.642 209.908C128.764 209.112 128.698 207.755 129.494 206.877Z" fill="#363E44"/>
</g>
<path d="M137.336 210.583C137.28 210.583 137.224 210.569 137.172 210.54C137.01 210.449 136.952 210.244 137.043 210.082C137.091 209.997 137.142 209.874 137.117 209.778C137.1 209.716 137.05 209.673 136.91 209.565C136.79 209.471 136.64 209.354 136.49 209.172C136.299 208.939 136.16 208.66 136.077 208.343C136.031 208.163 136.138 207.98 136.318 207.933C136.499 207.886 136.681 207.994 136.728 208.174C136.786 208.396 136.881 208.588 137.01 208.745C137.111 208.869 137.219 208.952 137.323 209.033C137.495 209.167 137.69 209.318 137.766 209.604C137.834 209.856 137.788 210.127 137.63 210.41C137.568 210.52 137.454 210.583 137.336 210.583Z" fill="#363E44"/>
<path d="M136.07 212.704C135.736 213.175 135.084 213.287 134.613 212.953C134.142 212.619 134.031 211.967 134.364 211.496C134.698 211.025 134.746 211.767 135.217 212.1C135.688 212.434 136.404 212.233 136.07 212.704Z" fill="#363E44"/>
<path d="M140.188 195.759C140.188 195.759 137.378 206.408 127.172 207.665C127.172 207.665 130.278 216.392 127.394 220.496C124.142 225.124 117.965 223.269 114.859 229.148C112.997 232.673 117.066 240.221 112.419 244.678C106.984 249.892 96.0015 245.566 91.2317 241.24C86.6014 237.04 84.2432 227.706 88.5693 223.38C92.1947 219.755 100.314 221.238 103.434 218.61C107.649 215.06 104.358 210.781 107.316 205.521C110.311 200.196 117.744 200.64 119.777 199.309C121.37 198.266 123.552 192.829 129.336 191.987C135.436 191.1 140.188 195.759 140.188 195.759Z" fill="#363E44"/>
<path d="M134.17 216.318C134.136 216.318 134.102 216.313 134.068 216.302C131.581 215.507 129.553 213.925 129.468 213.858C129.322 213.744 129.297 213.532 129.412 213.386C129.527 213.24 129.738 213.215 129.884 213.33C129.904 213.345 131.904 214.904 134.273 215.662C134.449 215.718 134.547 215.907 134.491 216.084C134.445 216.227 134.313 216.318 134.17 216.318Z" fill="#363E44"/>
<path d="M110.449 177.723C119.055 169.117 119.055 155.164 110.449 146.559C101.844 137.953 87.8909 137.953 79.2852 146.559C70.6795 155.164 70.6795 169.117 79.2852 177.723C87.8909 186.328 101.844 186.328 110.449 177.723Z" fill="white"/>
<path d="M98.064 184.52C98.0196 184.52 97.976 184.519 97.9315 184.519C91.9555 184.485 86.3507 182.125 82.1495 177.875C77.9482 173.625 75.6534 167.994 75.6879 162.018C75.7587 149.725 85.7818 139.773 98.0585 139.773C98.102 139.773 98.1457 139.774 98.1894 139.774C104.165 139.808 109.77 142.168 113.971 146.418C118.173 150.668 120.467 156.299 120.433 162.275C120.398 168.251 118.039 173.856 113.789 178.057C109.571 182.228 103.99 184.52 98.064 184.52ZM98.0585 140.446C86.15 140.446 76.4292 150.098 76.3605 162.022C76.3271 167.818 78.5529 173.28 82.628 177.403C86.7029 181.525 92.1392 183.813 97.9356 183.847C103.717 183.882 109.194 181.654 113.316 177.579C117.438 173.504 119.727 168.068 119.76 162.271C119.794 156.475 117.568 151.013 113.493 146.891C109.418 142.768 103.982 140.48 98.1854 140.447C98.1439 140.446 98.1 140.446 98.0585 140.446Z" fill="#E6D0BE"/>
<path d="M98.1001 151.79C91.9507 151.79 85.9053 150.754 80.6172 148.795L80.851 148.164C86.065 150.096 92.0297 151.118 98.1001 151.118C104.124 151.118 110.049 150.111 115.234 148.206L115.466 148.838C110.207 150.769 104.202 151.79 98.1001 151.79Z" fill="#E6D0BE"/>
<path d="M80.6508 175.818L80.4141 175.188C85.753 173.179 91.8685 172.117 98.1 172.117C104.298 172.117 110.385 173.169 115.703 175.157L115.467 175.787C110.224 173.826 104.218 172.79 98.1 172.79C91.9484 172.79 85.9148 173.837 80.6508 175.818Z" fill="#E6D0BE"/>
<path d="M98.0625 184.519C91.5685 184.519 86.2852 174.483 86.2852 162.146C86.2852 149.81 91.5685 139.773 98.0625 139.773C104.556 139.773 109.84 149.81 109.84 162.146C109.84 174.483 104.556 184.519 98.0625 184.519ZM98.0625 140.446C91.9393 140.446 86.9578 150.181 86.9578 162.146C86.9578 174.112 91.9393 183.847 98.0625 183.847C104.186 183.847 109.167 174.112 109.167 162.146C109.167 150.18 104.186 140.446 98.0625 140.446Z" fill="#E6D0BE"/>
<path d="M98.3992 140.156H97.7266V184.153H98.3992V140.156Z" fill="#E6D0BE"/>
<path d="M76.0209 161.499L76.0156 162.172L120.108 162.516L120.113 161.843L76.0209 161.499Z" fill="#E6D0BE"/>
<path d="M217.137 147.212C231.887 147.212 243.845 135.254 243.845 120.504C243.845 105.754 231.887 93.7969 217.137 93.7969C202.387 93.7969 190.43 105.754 190.43 120.504C190.43 135.254 202.387 147.212 217.137 147.212Z" fill="white"/>
<path d="M223.278 131.258H211.238C211.053 131.258 210.902 131.107 210.902 130.921V126.769C210.902 125.139 210.181 123.565 208.924 122.45C206.275 120.102 204.743 116.727 204.719 113.191C204.674 106.516 210.058 100.88 216.72 100.626C220.156 100.497 223.4 101.732 225.867 104.108C228.335 106.484 229.695 109.68 229.695 113.105C229.695 116.675 228.161 120.082 225.488 122.452C224.3 123.506 223.619 125.049 223.619 126.687C223.619 126.687 223.619 126.688 223.619 126.688L223.614 130.922C223.614 131.108 223.463 131.258 223.278 131.258ZM211.575 130.585H222.942L222.946 126.687C222.947 124.857 223.71 123.13 225.042 121.949C227.572 119.706 229.022 116.483 229.022 113.105C229.022 109.864 227.736 106.841 225.4 104.592C223.066 102.345 219.993 101.176 216.746 101.299C210.443 101.538 205.349 106.871 205.392 113.187C205.414 116.532 206.864 119.725 209.37 121.947C210.771 123.19 211.575 124.947 211.575 126.769L211.575 130.585Z" fill="#F99D20"/>
<path d="M223.278 131.258H211.238C211.053 131.258 210.902 131.107 210.902 130.921V126.769C210.902 125.139 210.181 123.565 208.924 122.45C206.275 120.101 204.743 116.726 204.719 113.191C204.674 106.516 210.058 100.879 216.72 100.626C219.127 100.535 221.487 101.128 223.545 102.343C223.705 102.437 223.758 102.643 223.663 102.803C223.569 102.963 223.363 103.016 223.203 102.922C221.256 101.773 219.021 101.212 216.746 101.298C210.443 101.538 205.349 106.871 205.391 113.186C205.414 116.532 206.864 119.725 209.37 121.947C210.771 123.19 211.574 124.947 211.574 126.769V130.585H222.942L222.946 126.687C222.946 124.857 223.71 123.13 225.042 121.949C227.571 119.706 229.022 116.483 229.022 113.105C229.022 110.614 228.256 108.232 226.807 106.217C226.699 106.066 226.733 105.856 226.884 105.747C227.035 105.639 227.245 105.673 227.354 105.824C228.885 107.955 229.695 110.473 229.695 113.105C229.695 116.675 228.161 120.082 225.488 122.452C224.3 123.506 223.619 125.049 223.619 126.687L223.614 130.922C223.614 131.107 223.463 131.258 223.278 131.258Z" fill="#F99D20"/>
<path d="M215.395 130.505C215.209 130.505 215.059 130.355 215.059 130.169V115.791H213.215C211.828 115.791 210.699 114.662 210.699 113.275V113.204C210.699 111.816 211.828 110.688 213.215 110.688C214.603 110.688 215.731 111.816 215.731 113.204V115.119H218.682V113.204C218.682 111.816 219.811 110.688 221.198 110.688C222.585 110.688 223.714 111.816 223.714 113.204V113.275C223.714 114.662 222.585 115.791 221.198 115.791H219.354V123.553C219.354 123.739 219.204 123.89 219.018 123.89C218.832 123.89 218.682 123.739 218.682 123.553V115.791H215.731V130.169C215.731 130.355 215.581 130.505 215.395 130.505ZM219.354 115.119H221.198C222.215 115.119 223.042 114.292 223.042 113.275V113.204C223.042 112.187 222.215 111.36 221.198 111.36C220.181 111.36 219.354 112.187 219.354 113.204V115.119ZM213.215 111.36C212.199 111.36 211.372 112.187 211.372 113.204V113.275C211.372 114.292 212.199 115.119 213.215 115.119H215.059V113.204C215.059 112.187 214.232 111.36 213.215 111.36Z" fill="#F99D20"/>
<path d="M217.207 140.587C213.698 140.587 210.844 137.732 210.844 134.223V130.922C210.844 130.736 210.994 130.586 211.18 130.586H223.235C223.42 130.586 223.571 130.736 223.571 130.922V134.223C223.571 137.732 220.716 140.587 217.207 140.587ZM211.516 131.259V134.223C211.516 137.361 214.07 139.914 217.207 139.914C220.345 139.914 222.898 137.361 222.898 134.223V131.259H211.516Z" fill="#F99D20"/>
<path d="M222.151 135.399H215.114C214.928 135.399 214.777 135.249 214.777 135.063C214.777 134.877 214.928 134.727 215.114 134.727H222.151C222.337 134.727 222.487 134.877 222.487 135.063C222.487 135.249 222.337 135.399 222.151 135.399Z" fill="#F99D20"/>
<path d="M308.246 301.384C319.051 290.579 319.051 273.061 308.246 262.256C297.441 251.452 279.923 251.452 269.119 262.256C258.314 273.061 258.314 290.579 269.119 301.384C279.923 312.189 297.441 312.189 308.246 301.384Z" fill="white"/>
<path d="M305.878 285.264C307.121 285.573 308.033 286.718 307.978 288.069C307.916 289.567 306.627 290.723 305.128 290.723H304.365C305.466 291.125 306.242 292.201 306.186 293.454C306.118 294.949 304.827 296.098 303.331 296.098H289.901C286.376 296.098 283.196 293.978 281.84 290.723V290.553V274.654H281.845L281.84 274.652C281.84 274.652 287.593 271.901 293.477 267.025C294.66 266.046 297.891 268.292 296.062 272.317C295.729 273.049 295.179 273.855 294.54 274.654H303.332C304.861 274.654 306.192 275.904 306.188 277.433C306.186 278.442 305.643 279.322 304.836 279.805H305.128C306.627 279.805 307.915 280.961 307.977 282.459C308.033 283.81 307.121 284.955 305.878 285.264Z" fill="#F99D20"/>
<path d="M280.583 272.305H269.945V294.045H280.583V272.305Z" fill="#F99D20"/>
<path d="M302.35 243.849C317.565 243.849 329.9 231.515 329.9 216.3C329.9 201.084 317.565 188.75 302.35 188.75C287.135 188.75 274.801 201.084 274.801 216.3C274.801 231.515 287.135 243.849 302.35 243.849Z" fill="white"/>
<path d="M318.58 228.291H285.989C285.803 228.291 285.652 228.14 285.652 227.955V205.141C285.652 204.955 285.803 204.805 285.989 204.805H318.58C318.765 204.805 318.916 204.955 318.916 205.141V227.955C318.916 228.14 318.765 228.291 318.58 228.291ZM286.325 227.618H318.243V205.477H286.325V227.618Z" fill="#F99D20"/>
<path d="M298.793 222.147C298.736 222.147 298.678 222.132 298.626 222.103C298.522 222.043 298.457 221.931 298.457 221.811V210.657C298.457 210.536 298.522 210.424 298.627 210.364C298.732 210.304 298.861 210.306 298.965 210.368L308.382 215.974C308.484 216.034 308.547 216.145 308.547 216.263C308.546 216.382 308.483 216.492 308.381 216.552L298.964 222.101C298.912 222.132 298.853 222.147 298.793 222.147ZM299.13 211.248V221.222L307.551 216.261L299.13 211.248Z" fill="#F99D20"/>
<path d="M153.358 154.708C167.799 154.708 179.505 143.002 179.505 128.561C179.505 114.121 167.799 102.414 153.358 102.414C138.917 102.414 127.211 114.121 127.211 128.561C127.211 143.002 138.917 154.708 153.358 154.708Z" fill="white"/>
<path d="M140.213 123.275C141.199 120.106 144.155 117.805 147.648 117.805C149.908 117.805 151.937 118.774 153.359 120.311C154.781 118.774 156.81 117.805 159.07 117.805C162.563 117.805 165.519 120.106 166.504 123.275C166.732 124.006 166.855 124.783 166.855 125.59C166.855 129.889 161.77 137.187 153.359 140.365C144.947 137.187 139.863 129.889 139.863 125.59C139.863 124.783 139.986 124.006 140.213 123.275Z" fill="#F99D20"/>
<path d="M250.445 344.649C261.595 333.5 261.595 315.422 250.445 304.272C239.295 293.122 221.218 293.122 210.068 304.272C198.918 315.422 198.918 333.5 210.068 344.65C221.217 355.799 239.295 355.799 250.445 344.649Z" fill="white"/>
<path d="M249.39 337.876H210.961C210.776 337.876 210.625 337.725 210.625 337.539V312.321C210.625 312.135 210.776 311.984 210.961 311.984C211.147 311.984 211.298 312.135 211.298 312.321V337.203H249.39C249.576 337.203 249.726 337.354 249.726 337.539C249.726 337.725 249.576 337.876 249.39 337.876Z" fill="#D3BBA3"/>
<path d="M235.622 320.862C235.507 320.862 235.396 320.803 235.333 320.698C235.238 320.539 235.289 320.332 235.449 320.237L240.014 317.509C240.173 317.413 240.379 317.465 240.475 317.625C240.57 317.784 240.518 317.991 240.359 318.086L235.794 320.814C235.74 320.846 235.68 320.862 235.622 320.862Z" fill="#D3BBA3"/>
<path d="M232.732 320.127C232.623 320.127 232.515 320.073 232.451 319.975L226.266 310.56C226.164 310.405 226.207 310.196 226.363 310.094C226.518 309.992 226.727 310.036 226.828 310.191L233.013 319.606C233.115 319.761 233.072 319.97 232.916 320.071C232.859 320.109 232.795 320.127 232.732 320.127Z" fill="#D3BBA3"/>
<path d="M219.047 314.025C218.947 314.025 218.847 313.98 218.781 313.894C218.668 313.747 218.695 313.536 218.842 313.423L223.646 309.711C223.793 309.597 224.004 309.624 224.118 309.771C224.231 309.918 224.204 310.129 224.057 310.243L219.253 313.955C219.192 314.002 219.119 314.025 219.047 314.025Z" fill="#D3BBA3"/>
<path d="M218.261 316.762C219.272 316.343 219.752 315.184 219.333 314.173C218.914 313.162 217.755 312.682 216.744 313.101C215.734 313.52 215.254 314.679 215.672 315.69C216.091 316.701 217.25 317.181 218.261 316.762Z" fill="#D87355"/>
<path d="M225.481 310.744C226.575 310.744 227.462 309.857 227.462 308.762C227.462 307.668 226.575 306.781 225.481 306.781C224.387 306.781 223.5 307.668 223.5 308.762C223.5 309.857 224.387 310.744 225.481 310.744Z" fill="#D87355"/>
<path d="M235.861 321.473C235.861 322.568 234.974 323.455 233.88 323.455C232.786 323.455 231.898 322.568 231.898 321.473C231.898 320.379 232.785 319.492 233.88 319.492C234.974 319.492 235.861 320.379 235.861 321.473Z" fill="#D87355"/>
<path d="M242.698 318.684C243.709 318.265 244.189 317.106 243.771 316.095C243.352 315.084 242.193 314.604 241.182 315.023C240.171 315.442 239.691 316.601 240.11 317.612C240.528 318.623 241.687 319.103 242.698 318.684Z" fill="#D87355"/>
<path d="M220.076 320.047H215.148V333.557H220.076V320.047Z" fill="#E6D0BE"/>
<path d="M228.208 317.359H223.281V333.561H228.208V317.359Z" fill="#E6D0BE"/>
<path d="M236.341 324.828H231.414V333.559H236.341V324.828Z" fill="#E6D0BE"/>
<path d="M244.474 322.32H239.547V333.558H244.474V322.32Z" fill="#E6D0BE"/>
<path d="M311.417 161.011C321.977 150.451 321.977 133.33 311.417 122.77C300.857 112.21 283.736 112.21 273.175 122.77C262.615 133.33 262.615 150.451 273.175 161.011C283.735 171.571 300.857 171.571 311.417 161.011Z" fill="white"/>
<path d="M310.798 146.849L300.407 139.051L300.941 126.07L290.314 133.542L278.134 129.024L281.956 141.44L273.895 151.628L286.884 151.829L294.082 162.644L298.288 150.353L310.798 146.849Z" fill="#0FA8D9"/>
</svg>
